<svg width="160" height="170" viewBox="0 0 160 170" xmlns="http://www.w3.org/2000/svg"><title>frontend_cubie</title><g fill="none" fill-rule="evenodd"><g fill="#8BA124"><path d="M80 95l70 30-70 45-70-45 70-30z" fill-opacity=".7"/><path d="M80 0l80 30-10 95-70-30V0z" fill-opacity=".52"/><path d="M80 0L0 30l10 95 70-30V0z" fill-opacity=".4"/><path d="M80 170l70-45 10-95-80 40v100z" fill-opacity=".7"/><path d="M0 30l80 40v100l-70-45L0 30z" fill-opacity=".6"/><path d="M80 0l80 30-80 40L0 30 80 0z" fill-opacity=".4"/></g><g transform="translate(96.108 68.024)"><ellipse fill-opacity=".9" fill="#FFF" cx="10.831" cy="21.045" rx="7.82" ry="12.909"/><ellipse fill-opacity=".9" fill="#FFF" cx="40.511" cy="10.554" rx="6.331" ry="10.531"/><path d="M.06 53.328s21.418-5.54 31.076-10.498c9.66-4.957 18.898-14.697 18.898-14.697l-1.68 10.078s-5.88 11.758-17.218 18.057c-11.338 6.3-27.296 3.78-27.296 3.78l-3.78-6.72z" fill="#1D5C25"/><path d="M.06 53.328s21.418-5.54 31.076-10.498c9.66-4.957 18.898-14.697 18.898-14.697l-1.142 2.843s-5.66 7.7-17 14c-11.338 6.298-31 10-31 10L.06 53.328z" fill-opacity=".9" fill="#FFF"/></g></g></svg>